<svg width="287" height="173" xmlns="http://www.w3.org/2000/svg"><g fill="none" fill-rule="evenodd"><path fill="#FFF" fill-rule="nonzero" d="M0 0h287v173H0z"/><g transform="translate(64 36)" fill-rule="nonzero"><rect fill="#DBDBDB" width="160" height="101" rx="6"/><rect fill="#FFF" x="9" y="17" width="46" height="74" rx="3"/><rect fill="#FFF" x="62" y="18" width="87" height="28" rx="3"/><rect fill="#FFF" x="62" y="53" width="40" height="38" rx="3"/><rect fill="#FFF" x="109" y="53" width="40" height="38" rx="3"/><path d="M11.78 6c1.536 0 2.781 1.273 2.781 2.844 0 1.57-1.245 2.844-2.78 2.844C10.245 11.688 9 10.413 9 8.844 9 7.274 10.245 6 11.78 6zm7.15 0c1.536 0 2.781 1.273 2.781 2.844 0 1.57-1.245 2.844-2.78 2.844-1.536 0-2.781-1.274-2.781-2.844C16.15 7.274 17.395 6 18.93 6zm7.15 0c1.536 0 2.781 1.273 2.781 2.844 0 1.57-1.245 2.844-2.78 2.844-1.536 0-2.781-1.274-2.781-2.844C23.3 7.274 24.545 6 26.08 6z" fill="#FFF"/></g><g fill-rule="nonzero"><path d="M80 170.928c9.176 0-.065-7.182 5.5-15.01 8.838-12.433 29.766-29.418 29.766-43.99 0-23.749-11.518-27-35.266-27-19.56 0-19.063 13.97-24.279 31.846C54.605 120.602 37 123.74 37 127.928c0 23.748 19.252 43 43 43z" fill="#FFF"/><path d="M49.834 104.157c-5.984 15.545-.969 32.597 11.235 42.606 1.635 1 2.7.158 3.058-.771.323-.84 1.357-3.623 2.473-6.57-10.617-1.622-10.268-8.693-10.268-8.693-.036-4.68-1.929-6.645-1.929-6.645-2.354-3.407 1.065-2.046 1.065-2.046 3.44 1.602 4.003 5.692 4.003 5.692 1.07 6.581 6.767 6.978 9.123 6.848 1.192-2.153 2.702-3.355 4.047-3.849-7.48-3.884-14.542-10.049-9.353-23.53 1.479-3.842 4.063-6.454 7.264-8.055-.024-1.026.148-5.066 3.925-9.18 0 0 3.322.186 8.3 7.315 3.11.295 6.273 1.058 9.272 2.19 2.988 1.16 5.852 2.705 8.367 4.562 8.475-1.98 11.064.097 11.064.097.052 5.58-2.532 8.697-3.239 9.443 1.31 3.329 1.468 6.99-.01 10.832-5.202 13.514-14.587 13.335-22.765 11.204.843 1.575 1.145 4.147-.119 7.43-1.812 4.708-3.311 8.48-3.757 9.64-.36.936-.149 2.276 1.77 2.614 15.779.696 30.932-8.63 36.914-24.17 7.48-19.431-2.226-41.22-21.676-48.666-19.45-7.445-41.284 2.27-48.764 21.702z" fill="#161514"/></g><g transform="translate(96.969 77.988)"><path stroke="#ABABAB" stroke-width="2" stroke-linecap="round" d="M20.796 11.337L0 14.259"/><ellipse fill="#E74848" fill-rule="nonzero" transform="rotate(-8 26.749 10.332)" cx="26.749" cy="10.332" rx="8.398" ry="8.332"/><circle fill="#FF7979" transform="rotate(-8 27.875 7.817)" cx="27.875" cy="7.817" r="2.5"/></g></g></svg>