<?xml version="1.0" encoding="UTF-8"?>
<svg width="287px" height="173px" viewBox="0 0 287 173" version="1.1" xmlns="http://www.w3.org/2000/svg" xmlns:xlink="http://www.w3.org/1999/xlink">
    <!-- Generator: Sketch 61 (89581) - https://sketch.com -->
    <title>Group 4</title>
    <desc>Created with Sketch.</desc>
    <defs>
        <path d="M28.7905962,2.38139138 L28.8499345,5.78088225 L1.42999741,5.45678794 C1.11384017,5.17361962 0.948186657,4.86172999 0.933036866,4.52111906 C0.919603858,4.21910639 1.03187243,3.93221224 1.2698426,3.66043663 L28.7905962,2.38139138 Z" id="path-1"></path>
        <ellipse id="path-3" cx="9.71352632" cy="9.71" rx="8.39829409" ry="8.3317202"></ellipse>
    </defs>
    <g id="Page-1" stroke="none" stroke-width="1" fill="none" fill-rule="evenodd">
        <g id="Group-4">
            <rect id="Rectangle" fill="#FFFFFF" x="0" y="0" width="287" height="173"></rect>
            <g id="Group" transform="translate(69.000000, 31.000000)">
                <rect id="Rectangle" fill="#DEDEDE" x="0" y="0" width="160" height="101" rx="6"></rect>
                <rect id="Rectangle" fill="#FFFFFF" x="9" y="16" width="45" height="77" rx="3"></rect>
                <rect id="Rectangle" fill="#FFFFFF" x="61" y="17" width="91" height="31" rx="3"></rect>
                <rect id="Rectangle" fill="#FFFFFF" x="61" y="53" width="91" height="40" rx="3"></rect>
                <path d="M11.7805556,6 C13.316214,6 14.5611111,7.27319024 14.5611111,8.84375 C14.5611111,10.4143098 13.316214,11.6875 11.7805556,11.6875 C10.2448971,11.6875 9,10.4143098 9,8.84375 C9,7.27319024 10.2448971,6 11.7805556,6 Z M18.9305556,6 C20.466214,6 21.7111111,7.27319024 21.7111111,8.84375 C21.7111111,10.4143098 20.466214,11.6875 18.9305556,11.6875 C17.3948971,11.6875 16.15,10.4143098 16.15,8.84375 C16.15,7.27319024 17.3948971,6 18.9305556,6 Z M26.0805556,6 C27.616214,6 28.8611111,7.27319024 28.8611111,8.84375 C28.8611111,10.4143098 27.616214,11.6875 26.0805556,11.6875 C24.5448971,11.6875 23.3,10.4143098 23.3,8.84375 C23.3,7.27319024 24.5448971,6 26.0805556,6 Z" id="Combined-Shape" fill="#FFFFFF"></path>
            </g>
            <g id="Group-3" transform="translate(44.000000, 61.000000)">
                <path d="M43,102 C52.1761435,102 42.9347269,94.818439 48.5,86.9895452 C57.3378871,74.5569333 78.266092,57.5721008 78.266092,43 C78.266092,19.2517558 66.7482442,16 43,16 C23.4402099,16 23.9365706,29.971131 18.7214641,47.8465463 C17.6047224,51.6743152 0,54.8115459 0,59 C0,82.7482442 19.2517558,102 43,102 Z" id="Oval" fill="#FFFFFF"></path>
                <path d="M10.6738535,48.8079067 C10.6584636,65.4650725 21.4512048,79.5869379 36.4309694,84.5582078 C38.315403,84.9054564 39.0084339,83.7379858 39.0093549,82.7422143 C39.0101864,81.8432105 38.9779609,78.8734089 38.9646375,75.723165 C28.4708424,78.0134466 26.2631954,71.2866968 26.2631954,71.2866968 C24.5517103,66.9306093 22.0809908,65.7741749 22.0809908,65.7741749 C18.6614915,63.4374262 22.3410311,63.4821016 22.3410311,63.4821016 C26.1277841,63.7445614 28.1184815,67.3618353 28.1184815,67.3618353 C31.4767352,73.1223435 36.9370755,71.4510265 39.090011,70.4857327 C39.4307465,68.0487455 40.4096352,66.3846865 41.4890263,65.4422343 C33.1134211,64.4966474 24.3108891,61.2721073 24.3242502,46.826241 C24.3280571,42.7101774 25.8043753,39.3456696 28.2192804,36.7032437 C27.828594,35.7540324 26.5412885,31.9207232 28.5938438,26.7258379 C28.5938438,26.7258379 31.7616463,25.7096627 38.9639238,30.5807303 C41.9729374,29.7426294 45.1995182,29.3207408 48.4044917,29.3034235 C51.6094386,29.3148244 54.8377425,29.730755 57.8508315,30.5632975 C65.0533888,25.6789341 68.2149455,26.6892672 68.2149455,26.6892672 C70.2628907,31.8803677 68.9678676,35.7160604 68.5754246,36.6659945 C70.9910664,39.3039618 72.4511713,42.6657592 72.4473643,46.7818229 C72.4339715,61.2620261 63.608639,64.458511 55.2100556,65.3996029 C56.5616516,66.5683078 57.7648244,68.8615278 57.7615711,72.3788799 C57.7569055,77.4232898 57.7094352,81.483206 57.7082867,82.724955 C57.7073587,83.7282182 58.3851085,84.9031638 60.297061,84.5311847 C75.2779338,79.526642 86.0830725,65.389836 86.0984901,48.738289 C86.117732,27.9163635 69.2485989,11.0531531 48.4213537,11.0723604 C27.5959821,11.0915989 10.6931283,27.9859812 10.6738535,48.8079067 Z" id="Fill-5" fill="#161514" transform="translate(48.386172, 47.846546) rotate(21.000000) translate(-48.386172, -47.846546) "></path>
                <g id="Group-2" transform="translate(75.096630, 17.086562) rotate(-10.000000) translate(-75.096630, -17.086562) translate(53.596630, 5.586562)">
                    <g id="Path" transform="translate(15.389927, 12.534394) rotate(6.000000) translate(-15.389927, -12.534394) translate(0.889927, 8.534394)">
                        <mask id="mask-2" fill="white">
                            <use xlink:href="#path-1"></use>
                        </mask>
                        <use id="Mask" fill="#9E9E9E" transform="translate(14.890947, 4.081137) rotate(-9.000000) translate(-14.890947, -4.081137) " xlink:href="#path-1"></use>
                    </g>
                    <g id="Oval" transform="translate(31.615243, 11.164839) rotate(6.000000) translate(-31.615243, -11.164839) translate(21.615243, 1.164839)">
                        <mask id="mask-4" fill="white">
                            <use xlink:href="#path-3"></use>
                        </mask>
                        <use id="Mask" fill="#FF3F3F" transform="translate(9.713526, 9.710000) rotate(-9.000000) translate(-9.713526, -9.710000) " xlink:href="#path-3"></use>
                    </g>
                </g>
            </g>
        </g>
    </g>
</svg>